<?xml version="1.0" standalone="no"?>
<!DOCTYPE svg PUBLIC "-//W3C//DTD SVG 20010904//EN"
 "http://www.w3.org/TR/2001/REC-SVG-20010904/DTD/svg10.dtd">
<svg version="1.0" xmlns="http://www.w3.org/2000/svg" width="250" height="84" viewBox="0 0 973.000000 297.000000" preserveAspectRatio="xMidYMid meet">

<g transform="translate(0.000000,297.000000) scale(0.100000,-0.100000)"
fill="#E64C6D" stroke="none">
<path d="M4680 2928 c-65 -37 -165 -136 -246 -243 l-58 -77 24 -46 c32 -60
112 -147 164 -177 59 -35 111 -40 193 -20 68 17 73 16 154 -4 105 -27 123 -26
184 3 66 31 148 119 208 223 14 24 -191 272 -277 335 -44 32 -77 35 -130 13
-34 -15 -40 -14 -83 5 -60 26 -68 26 -133 -12z m288 -193 c67 -27 136 -67 147
-85 8 -12 -523 -14 -544 -1 -10 6 -5 14 20 34 119 88 246 106 377 52z"/>
<path d="M3641 2525 c-64 -30 -85 -31 -152 -5 l-51 21 -55 -26 c-72 -32 -190
-153 -323 -330 l-102 -134 32 -53 c108 -175 223 -273 346 -293 30 -5 67 1 135
19 108 30 195 33 263 10 96 -33 215 1 313 90 57 51 173 216 173 245 0 27 -157
216 -266 321 -95 90 -169 139 -234 154 -16 3 -45 -4 -79 -19z m89 -256 c94
-21 256 -116 235 -137 -11 -12 -702 -36 -728 -26 -9 3 -17 10 -17 14 0 23 217
135 295 153 38 9 170 6 215 -4z"/>
<path d="M5973 2531 c-111 -38 -281 -201 -464 -447 -13 -16 74 -156 142 -229
105 -112 236 -158 345 -121 68 23 155 20 264 -10 84 -23 100 -25 149 -15 70
14 129 49 197 118 60 60 154 195 154 222 0 19 -131 196 -223 299 -79 90 -148
149 -204 174 -41 18 -43 18 -95 -2 -66 -25 -89 -25 -136 -1 -59 30 -74 31
-129 12z m279 -272 c78 -27 149 -61 210 -102 52 -35 56 -42 31 -51 -24 -10
-716 14 -728 25 -13 13 18 41 95 83 126 69 273 85 392 45z"/>
<path d="M1945 2068 c-95 -34 -271 -191 -416 -371 -116 -144 -114 -139 -93
-179 69 -135 204 -281 301 -325 75 -35 171 -42 243 -18 74 25 163 21 272 -10
162 -47 257 -22 387 101 66 62 191 231 191 258 0 15 -156 222 -245 326 -108
126 -227 220 -282 220 -12 0 -42 -9 -68 -20 -61 -26 -95 -25 -155 5 -53 27
-87 30 -135 13z m368 -329 c117 -46 244 -126 228 -142 -14 -14 -29 -14 -451
-3 -190 5 -356 13 -369 17 -23 9 -23 10 -5 30 23 25 128 85 195 110 132 50
255 47 402 -12z"/>
<path d="M7671 2055 c-52 -30 -94 -32 -152 -5 -56 25 -80 25 -132 -1 -64 -33
-251 -228 -366 -381 l-102 -137 17 -33 c36 -71 119 -181 179 -237 126 -117
226 -143 382 -97 107 32 194 35 277 11 172 -50 349 41 485 249 83 127 82 123
16 208 -219 281 -396 433 -518 445 -32 3 -52 -2 -86 -22z m84 -280 c125 -27
313 -131 285 -159 -11 -11 -759 -37 -808 -28 -12 2 -21 10 -19 16 6 20 122 92
203 126 140 59 220 70 339 45z"/>
<path d="M1010 1225 c-79 -41 -117 -43 -198 -10 -34 14 -78 25 -97 25 -113 0
-312 -186 -582 -544 -58 -76 -109 -149 -115 -161 -8 -17 -3 -33 26 -82 141
-241 336 -411 506 -443 65 -13 99 -8 240 31 154 44 234 47 343 15 150 -44 269
-28 396 54 118 77 256 240 335 397 l26 51 -72 94 c-242 316 -493 549 -641 593
-71 21 -93 19 -167 -20z m137 -380 c110 -26 266 -102 337 -165 57 -52 45 -54
-372 -67 -433 -13 -683 -16 -706 -7 -26 10 -19 21 37 63 103 78 327 175 442
191 72 10 177 4 262 -15z"/>
<path d="M8549 1244 c-145 -44 -402 -283 -637 -592 l-72 -94 26 -51 c79 -157
217 -321 333 -396 130 -83 248 -100 398 -55 109 32 189 29 343 -15 141 -39
175 -44 240 -31 172 32 374 210 506 446 42 76 52 51 -96 249 -197 263 -351
425 -475 500 -71 43 -111 45 -197 10 -82 -33 -115 -32 -198 10 -76 38 -101 41
-171 19z m416 -416 c141 -48 326 -146 366 -194 10 -13 10 -17 -2 -25 -18 -11
-243 -10 -711 4 -417 13 -429 15 -371 67 42 38 154 102 233 133 57 22 101 33
210 51 60 10 188 -7 275 -36z"/>
</g>
</svg>
